<svg width="88" height="27" viewBox="0 0 88 27" fill="none" xmlns="http://www.w3.org/2000/svg">
<path d="M29.972 11L24.568 25H21.768L16.364 11H19.64L23.168 21.136L26.696 11H29.972ZM43.8093 19.176H33.9533C34.2706 21.4533 35.5119 22.592 37.6773 22.592C38.4986 22.592 39.2266 22.4427 39.8613 22.144C40.4959 21.8453 41.0839 21.3787 41.6253 20.744L43.3613 22.396C42.8199 23.2733 42.0173 23.9733 40.9533 24.496C39.9079 25.0187 38.7599 25.28 37.5093 25.28C35.3626 25.28 33.6919 24.6453 32.4973 23.376C31.3026 22.088 30.7052 20.3053 30.7052 18.028C30.7052 15.7507 31.3026 13.968 32.4973 12.68C33.7106 11.3733 35.3626 10.72 37.4533 10.72C39.4506 10.72 41.0093 11.364 42.1293 12.652C43.2493 13.94 43.8093 15.7227 43.8093 18V19.176ZM40.7573 16.796C40.7573 15.6947 40.4586 14.836 39.8613 14.22C39.2639 13.604 38.4333 13.296 37.3693 13.296C36.3986 13.296 35.6146 13.6227 35.0173 14.276C34.4386 14.9107 34.0746 15.8067 33.9253 16.964H40.7573V16.796ZM46.1943 14.64C46.1943 12.904 46.1569 11.6907 46.0823 11H49.0503C49.1436 11.8773 49.1903 12.6987 49.1903 13.464H49.2463C49.6009 12.624 50.2076 11.9613 51.0663 11.476C51.9249 10.972 52.8769 10.72 53.9223 10.72C55.5463 10.72 56.7689 11.2613 57.5903 12.344C58.4116 13.408 58.8223 14.9947 58.8223 17.104V25H55.6303V17.076C55.6303 15.7693 55.4156 14.808 54.9863 14.192C54.5756 13.576 53.9129 13.268 52.9983 13.268C51.9156 13.268 51.0383 13.6507 50.3663 14.416C49.6943 15.1627 49.3583 16.1333 49.3583 17.328V25H46.1943V14.64ZM67.6029 25.28C66.2402 25.28 65.1669 24.888 64.3829 24.104C63.6176 23.3013 63.2349 22.2 63.2349 20.8V13.38H60.7149V11H63.2349V7.36L66.3149 6.436H66.4269V11H70.4589V13.38H66.4269V20.38C66.4269 21.22 66.6042 21.8453 66.9589 22.256C67.3322 22.648 67.9016 22.844 68.6669 22.844C69.4882 22.844 70.1602 22.732 70.6829 22.508L70.8509 24.748C70.0856 25.1027 69.0029 25.28 67.6029 25.28ZM78.1099 25.28C76.5046 25.28 75.2912 24.748 74.4699 23.684C73.6486 22.62 73.2379 21.0427 73.2379 18.952V11H76.4019V18.98C76.4019 20.2493 76.6166 21.192 77.0459 21.808C77.4752 22.4053 78.1379 22.704 79.0339 22.704C80.0979 22.704 80.9659 22.3027 81.6379 21.5C82.3286 20.6973 82.6739 19.6987 82.6739 18.504V11H85.8379V21.64C85.8379 22.6667 85.9219 23.7867 86.0899 25H83.0939C82.9259 24.104 82.8419 23.2827 82.8419 22.536H82.7579C82.3846 23.376 81.7779 24.048 80.9379 24.552C80.1166 25.0373 79.1739 25.28 78.1099 25.28Z" fill="url(#paint0_linear_125_493)"/>
<rect y="12.5" width="2.5" height="11" rx="0.2" transform="rotate(-90 0 12.5)" fill="url(#paint1_linear_125_493)"/>
<rect y="19" width="2.5" height="10" rx="0.2" transform="rotate(-90 0 19)" fill="url(#paint2_linear_125_493)"/>
<rect y="25.5" width="2.5" height="11" rx="0.2" transform="rotate(-90 0 25.5)" fill="url(#paint3_linear_125_493)"/>
<defs>
<linearGradient id="paint0_linear_125_493" x1="16" y1="15.2182" x2="88.0099" y2="14.2049" gradientUnits="userSpaceOnUse">
<stop stop-color="#00FCE3"/>
<stop offset="1" stop-color="#00D6FA"/>
</linearGradient>
<linearGradient id="paint1_linear_125_493" x1="-7.53133e-10" y1="18.7" x2="2.50084" y2="18.697" gradientUnits="userSpaceOnUse">
<stop stop-color="#00FCE3"/>
<stop offset="1" stop-color="#00D6FA"/>
</linearGradient>
<linearGradient id="paint2_linear_125_493" x1="-7.53133e-10" y1="24.6364" x2="2.50084" y2="24.6331" gradientUnits="userSpaceOnUse">
<stop stop-color="#00FCE3"/>
<stop offset="1" stop-color="#00D6FA"/>
</linearGradient>
<linearGradient id="paint3_linear_125_493" x1="-7.53133e-10" y1="31.7" x2="2.50084" y2="31.697" gradientUnits="userSpaceOnUse">
<stop stop-color="#00FCE3"/>
<stop offset="1" stop-color="#00D6FA"/>
</linearGradient>
</defs>
</svg>
